<svg xmlns="http://www.w3.org/2000/svg" xmlns:xlink="http://www.w3.org/1999/xlink" width="1890" zoomAndPan="magnify" viewBox="0 0 1416.96 715.92" height="945" preserveAspectRatio="xMidYMid meet" version="1.0"><defs><clipPath id="92f6d7b00c"><path d="M 0.0585938 0 L 1416.859375 0 L 1416.859375 708.671875 L 0.0585938 708.671875 Z M 0.0585938 0 " clip-rule="nonzero"/></clipPath><clipPath id="3625426e48"><path d="M 79 194.542969 L 378 194.542969 L 378 577 L 79 577 Z M 79 194.542969 " clip-rule="nonzero"/></clipPath></defs><g clip-path="url(#92f6d7b00c)"><path fill="#ffffff" d="M 0.0585938 0 L 1417.402344 0 L 1417.402344 708.671875 L 0.0585938 708.671875 Z M 0.0585938 0 " fill-opacity="1" fill-rule="nonzero"/><path fill="#ffffff" d="M 0.0585938 0 L 1417.402344 0 L 1417.402344 708.671875 L 0.0585938 708.671875 Z M 0.0585938 0 " fill-opacity="1" fill-rule="nonzero"/></g><path fill="#1d1d1b" d="M 488.4375 317.066406 L 469.621094 317.066406 L 469.621094 356.828125 C 469.621094 358.09375 468.636719 359.078125 467.375 359.078125 L 448.136719 359.078125 C 446.875 359.078125 445.890625 358.09375 445.890625 356.828125 L 445.890625 246.671875 C 445.890625 245.40625 446.875 244.421875 448.136719 244.421875 L 488.578125 244.421875 C 502.058594 244.421875 512.589844 247.375 519.890625 253.414062 C 527.191406 259.457031 530.84375 268.027344 530.84375 278.988281 C 530.84375 286.855469 529.160156 293.320312 525.789062 298.519531 C 522.417969 303.71875 517.222656 307.933594 510.484375 311.023438 L 534.074219 355.707031 C 534.914062 357.109375 533.792969 358.9375 532.105469 358.9375 L 511.464844 358.9375 C 510.484375 358.9375 509.5 358.375 509.078125 357.53125 Z M 469.621094 297.957031 L 488.578125 297.957031 C 494.476562 297.957031 499.109375 296.410156 502.339844 293.460938 C 505.566406 290.511719 507.253906 286.292969 507.253906 280.957031 C 507.253906 275.617188 505.707031 271.261719 502.621094 268.167969 C 499.53125 265.078125 494.894531 263.53125 488.578125 263.53125 L 469.621094 263.53125 Z M 469.621094 297.957031 " fill-opacity="1" fill-rule="nonzero"/><path fill="#1d1d1b" d="M 594.03125 357.671875 C 593.328125 355.847656 592.769531 353.738281 592.347656 351.351562 C 586.871094 357.53125 579.707031 360.484375 570.863281 360.484375 C 562.578125 360.484375 555.558594 358.09375 550.222656 353.316406 C 544.746094 348.539062 542.078125 342.359375 542.078125 335.050781 C 542.078125 326.058594 545.445312 319.171875 552.046875 314.253906 C 558.785156 309.476562 568.335938 306.949219 580.972656 306.949219 L 591.363281 306.949219 L 591.363281 302.03125 C 591.363281 298.097656 590.378906 295.007812 588.273438 292.617188 C 586.308594 290.230469 583.078125 289.105469 578.726562 289.105469 C 574.933594 289.105469 571.84375 290.089844 569.738281 291.914062 C 568.054688 293.460938 566.929688 295.285156 566.648438 297.675781 C 566.507812 298.660156 565.527344 299.503906 564.542969 299.503906 L 546.148438 299.503906 C 544.746094 299.503906 543.761719 298.378906 543.902344 296.972656 C 544.324219 293.039062 545.867188 289.246094 548.394531 285.734375 C 551.484375 281.515625 555.699219 278.285156 561.3125 275.898438 C 566.929688 273.507812 573.109375 272.382812 579.988281 272.382812 C 590.519531 272.382812 598.804688 275.054688 604.984375 280.253906 C 611.164062 285.59375 614.25 292.898438 614.25 302.453125 L 614.25 339.265625 C 614.25 345.730469 614.953125 351.351562 616.917969 355.707031 C 617.621094 357.25 616.640625 358.9375 614.953125 358.9375 L 596.136719 358.9375 C 595.15625 358.9375 594.3125 358.515625 594.03125 357.671875 Z M 575.777344 343.199219 C 579.148438 343.199219 582.238281 342.5 585.042969 340.953125 C 587.851562 339.40625 589.960938 337.441406 591.363281 334.910156 L 591.363281 320.296875 L 582.9375 320.296875 C 571.566406 320.296875 565.527344 324.230469 564.824219 332.101562 L 564.683594 333.503906 C 564.683594 336.316406 565.667969 338.703125 567.632812 340.53125 C 569.597656 342.21875 572.265625 343.199219 575.777344 343.199219 Z M 575.777344 343.199219 " fill-opacity="1" fill-rule="nonzero"/><path fill="#1d1d1b" d="M 675.894531 335.472656 C 675.894531 332.664062 674.492188 330.554688 671.824219 328.867188 C 669.015625 327.324219 664.660156 325.777344 658.625 324.511719 C 638.402344 320.296875 628.292969 311.726562 628.292969 298.660156 C 628.292969 291.070312 631.382812 284.75 637.703125 279.691406 C 644.019531 274.632812 652.164062 272.101562 662.273438 272.101562 C 673.085938 272.101562 681.652344 274.632812 688.113281 279.691406 C 694.007812 284.328125 697.097656 290.089844 697.660156 297.253906 C 697.800781 298.519531 696.675781 299.503906 695.414062 299.503906 L 677.019531 299.503906 C 675.894531 299.503906 675.054688 298.800781 674.914062 297.675781 C 674.632812 295.285156 673.507812 293.179688 671.824219 291.492188 C 669.71875 289.386719 666.488281 288.261719 661.992188 288.261719 C 658.203125 288.261719 655.253906 289.105469 653.148438 290.789062 C 651.042969 292.476562 650.058594 294.726562 650.058594 297.394531 C 650.058594 299.925781 651.183594 301.890625 653.570312 303.4375 C 655.957031 304.980469 660.027344 306.386719 665.644531 307.511719 C 671.261719 308.636719 676.035156 309.898438 679.96875 311.304688 C 691.902344 315.660156 697.941406 323.390625 697.941406 334.207031 C 697.941406 341.9375 694.570312 348.257812 687.972656 353.035156 C 681.371094 357.8125 672.664062 360.203125 662.132812 360.203125 C 654.972656 360.203125 648.65625 358.9375 643.179688 356.410156 C 637.703125 353.878906 633.347656 350.367188 630.121094 346.011719 C 627.453125 342.359375 625.90625 338.421875 625.484375 334.207031 C 625.34375 332.945312 626.328125 331.679688 627.730469 331.679688 L 645.003906 331.679688 C 645.988281 331.679688 646.96875 332.382812 647.109375 333.363281 C 647.671875 336.597656 649.074219 339.125 651.460938 340.953125 C 654.269531 343.058594 657.921875 344.183594 662.554688 344.183594 C 666.910156 344.183594 670.136719 343.339844 672.386719 341.65625 C 674.773438 340.25 675.894531 338.140625 675.894531 335.472656 Z M 675.894531 335.472656 " fill-opacity="1" fill-rule="nonzero"/><path fill="#1d1d1b" d="M 788.230469 317.207031 C 788.230469 330.273438 785.28125 340.8125 779.242188 348.679688 C 773.347656 356.550781 765.203125 360.484375 755.089844 360.484375 C 746.527344 360.484375 739.503906 357.53125 734.308594 351.492188 L 734.308594 389.429688 C 734.308594 390.691406 733.328125 391.675781 732.0625 391.675781 L 713.808594 391.675781 C 712.542969 391.675781 711.5625 390.691406 711.5625 389.429688 L 711.5625 276.039062 C 711.5625 274.773438 712.542969 273.789062 713.808594 273.789062 L 730.660156 273.789062 C 731.78125 273.789062 732.765625 274.632812 732.90625 275.757812 L 733.46875 282.078125 C 738.945312 275.476562 746.105469 272.101562 754.949219 272.101562 C 765.484375 272.101562 773.625 276.039062 779.382812 283.765625 C 785.140625 291.492188 788.089844 302.171875 788.089844 315.800781 L 788.089844 317.207031 Z M 765.484375 315.519531 C 765.484375 307.652344 764.078125 301.46875 761.269531 297.253906 C 758.460938 292.898438 754.390625 290.789062 749.054688 290.789062 C 741.890625 290.789062 736.976562 293.460938 734.308594 298.941406 L 734.308594 333.785156 C 737.117188 339.40625 742.03125 342.21875 749.195312 342.21875 C 760.007812 342.21875 765.484375 333.363281 765.484375 315.519531 Z M 765.484375 315.519531 " fill-opacity="1" fill-rule="nonzero"/><path fill="#1d1d1b" d="M 878.097656 317.207031 C 878.097656 330.835938 875.148438 341.515625 869.390625 349.101562 C 863.636719 356.691406 855.492188 360.484375 844.960938 360.484375 C 835.691406 360.484375 828.390625 356.96875 822.914062 349.804688 L 822.070312 356.828125 C 821.929688 357.953125 820.949219 358.796875 819.824219 358.796875 L 803.535156 358.796875 C 802.273438 358.796875 801.289062 357.8125 801.289062 356.550781 L 801.289062 240.347656 C 801.289062 239.082031 802.273438 238.101562 803.535156 238.101562 L 821.789062 238.101562 C 823.054688 238.101562 824.035156 239.082031 824.035156 240.347656 L 824.035156 281.515625 C 829.230469 275.335938 836.113281 272.382812 844.679688 272.382812 C 855.070312 272.382812 863.214844 276.179688 869.109375 283.765625 C 875.007812 291.351562 877.957031 302.171875 877.957031 315.941406 L 877.957031 317.207031 Z M 855.351562 315.519531 C 855.351562 306.949219 853.945312 300.625 851.277344 296.691406 C 848.609375 292.757812 844.539062 290.789062 839.0625 290.789062 C 831.898438 290.789062 826.84375 293.742188 824.175781 299.644531 L 824.175781 333.222656 C 826.984375 339.265625 832.039062 342.21875 839.203125 342.21875 C 846.503906 342.21875 851.417969 338.5625 853.664062 331.398438 C 854.789062 327.886719 855.351562 322.546875 855.351562 315.519531 Z M 855.351562 315.519531 " fill-opacity="1" fill-rule="nonzero"/><path fill="#1d1d1b" d="M 930.054688 360.484375 C 917.554688 360.484375 907.445312 356.691406 899.582031 348.960938 C 891.71875 341.375 887.785156 331.117188 887.785156 318.332031 L 887.785156 316.082031 C 887.785156 307.511719 889.472656 299.925781 892.703125 293.179688 C 896.070312 286.433594 900.707031 281.234375 906.742188 277.582031 C 912.78125 273.929688 919.660156 272.101562 927.386719 272.101562 C 939.039062 272.101562 948.167969 275.757812 954.90625 283.0625 C 961.648438 290.371094 964.875 300.765625 964.875 314.253906 L 964.875 321.28125 C 964.875 322.546875 963.894531 323.53125 962.628906 323.53125 L 910.675781 323.53125 C 911.378906 329.148438 913.625 333.503906 917.273438 336.878906 C 920.925781 340.25 925.699219 341.9375 931.316406 341.9375 C 939.179688 341.9375 945.5 339.40625 950.273438 334.207031 C 951.117188 333.222656 952.660156 333.363281 953.503906 334.347656 L 961.789062 343.621094 C 962.488281 344.464844 962.628906 345.589844 961.925781 346.433594 C 958.699219 350.507812 954.34375 353.878906 949.148438 356.269531 C 943.671875 359.21875 937.214844 360.484375 930.054688 360.484375 Z M 927.523438 290.648438 C 923.03125 290.648438 919.382812 292.195312 916.574219 295.285156 C 913.765625 298.378906 911.9375 302.734375 911.238281 308.355469 L 942.832031 308.355469 L 942.832031 306.527344 C 942.691406 301.46875 941.425781 297.535156 938.757812 294.867188 C 936.089844 292.054688 932.300781 290.648438 927.523438 290.648438 Z M 927.523438 290.648438 " fill-opacity="1" fill-rule="nonzero"/><path fill="#1d1d1b" d="M 1025.675781 292.757812 C 1025.675781 294.023438 1024.554688 295.007812 1023.289062 294.867188 C 1021.183594 294.585938 1019.21875 294.585938 1017.535156 294.585938 C 1008.96875 294.585938 1003.351562 297.535156 1000.683594 303.296875 L 1000.683594 356.828125 C 1000.683594 358.09375 999.699219 359.078125 998.4375 359.078125 L 980.183594 359.078125 C 978.917969 359.078125 977.933594 358.09375 977.933594 356.828125 L 977.933594 276.039062 C 977.933594 274.773438 978.917969 273.789062 980.183594 273.789062 L 997.3125 273.789062 C 998.4375 273.789062 999.417969 274.632812 999.558594 275.898438 L 1000.121094 283.90625 C 1004.613281 276.039062 1010.933594 272.242188 1019.078125 272.242188 C 1020.902344 272.242188 1022.730469 272.382812 1024.554688 272.804688 C 1025.539062 273.085938 1026.238281 273.929688 1026.238281 274.914062 Z M 1025.675781 292.757812 " fill-opacity="1" fill-rule="nonzero"/><path fill="#1d1d1b" d="M 1083.109375 292.757812 C 1083.109375 294.023438 1081.984375 295.007812 1080.722656 294.867188 C 1078.617188 294.585938 1076.648438 294.585938 1074.964844 294.585938 C 1066.398438 294.585938 1060.78125 297.535156 1058.113281 303.296875 L 1058.113281 356.828125 C 1058.113281 358.09375 1057.132812 359.078125 1055.867188 359.078125 L 1037.613281 359.078125 C 1036.347656 359.078125 1035.367188 358.09375 1035.367188 356.828125 L 1035.367188 276.039062 C 1035.367188 274.773438 1036.347656 273.789062 1037.613281 273.789062 L 1054.746094 273.789062 C 1055.867188 273.789062 1056.851562 274.632812 1056.992188 275.898438 L 1057.550781 283.90625 C 1062.046875 276.039062 1068.363281 272.242188 1076.507812 272.242188 C 1078.335938 272.242188 1080.160156 272.382812 1081.984375 272.804688 C 1082.96875 273.085938 1083.671875 273.929688 1083.671875 274.914062 Z M 1083.109375 292.757812 " fill-opacity="1" fill-rule="nonzero"/><path fill="#1d1d1b" d="M 1128.886719 326.761719 L 1144.191406 275.476562 C 1144.472656 274.492188 1145.3125 273.929688 1146.296875 273.929688 L 1165.957031 273.929688 C 1167.5 273.929688 1168.484375 275.476562 1168.0625 276.878906 L 1134.921875 372.285156 L 1133.097656 376.78125 C 1128.042969 387.882812 1119.617188 393.503906 1107.960938 393.503906 C 1105.15625 393.503906 1102.347656 393.222656 1099.539062 392.519531 C 1098.554688 392.238281 1097.851562 391.394531 1097.851562 390.410156 L 1097.851562 377.203125 C 1097.851562 375.9375 1098.835938 374.957031 1100.097656 374.957031 L 1102.347656 375.097656 C 1106.699219 375.097656 1108.804688 374.394531 1110.910156 372.988281 C 1113.019531 371.722656 1114.703125 369.476562 1115.964844 366.523438 L 1118.632812 359.5 L 1089.847656 277.160156 C 1089.289062 275.757812 1090.410156 274.210938 1091.957031 274.210938 L 1111.613281 274.210938 C 1112.597656 274.210938 1113.4375 274.914062 1113.71875 275.757812 Z M 1128.886719 326.761719 " fill-opacity="1" fill-rule="nonzero"/><path fill="#1d1d1b" d="M 1243.046875 318.613281 L 1243.046875 356.691406 C 1243.046875 357.953125 1242.0625 358.9375 1240.796875 358.9375 L 1221.5625 358.9375 C 1220.296875 358.9375 1219.316406 357.953125 1219.316406 356.691406 L 1219.316406 246.671875 C 1219.316406 245.40625 1220.296875 244.421875 1221.5625 244.421875 L 1263.96875 244.421875 C 1272.53125 244.421875 1280.117188 245.96875 1286.574219 249.199219 C 1293.035156 252.433594 1298.089844 256.789062 1301.601562 262.546875 C 1305.109375 268.308594 1306.933594 274.914062 1306.933594 282.359375 C 1306.933594 293.601562 1303.144531 302.453125 1295.421875 308.917969 C 1287.699219 315.378906 1277.167969 318.613281 1263.546875 318.613281 Z M 1243.046875 299.503906 L 1264.109375 299.503906 C 1270.285156 299.503906 1275.0625 298.097656 1278.429688 295.148438 C 1281.660156 292.195312 1283.34375 287.980469 1283.34375 282.5 C 1283.34375 276.878906 1281.660156 272.382812 1278.429688 268.871094 C 1275.199219 265.359375 1270.566406 263.671875 1264.808594 263.53125 L 1243.1875 263.53125 L 1243.1875 299.503906 Z M 1243.046875 299.503906 " fill-opacity="1" fill-rule="nonzero"/><path fill="#1d1d1b" d="M 1318.308594 251.871094 C 1318.308594 248.496094 1319.433594 245.6875 1321.679688 243.4375 C 1323.925781 241.191406 1327.015625 240.066406 1330.945312 240.066406 C 1334.878906 240.066406 1337.96875 241.191406 1340.214844 243.4375 C 1342.460938 245.6875 1343.726562 248.496094 1343.726562 251.871094 C 1343.726562 255.382812 1342.601562 258.191406 1340.214844 260.300781 C 1337.828125 262.546875 1334.738281 263.671875 1330.945312 263.671875 C 1327.15625 263.671875 1324.066406 262.546875 1321.679688 260.300781 C 1319.433594 258.191406 1318.308594 255.242188 1318.308594 251.871094 Z M 1340.214844 358.9375 L 1321.820312 358.9375 C 1320.554688 358.9375 1319.574219 357.953125 1319.574219 356.691406 L 1319.574219 276.039062 C 1319.574219 274.773438 1320.554688 273.789062 1321.820312 273.789062 L 1340.214844 273.789062 C 1341.476562 273.789062 1342.460938 274.773438 1342.460938 276.039062 L 1342.460938 356.691406 C 1342.320312 357.953125 1341.339844 358.9375 1340.214844 358.9375 Z M 1340.214844 358.9375 " fill-opacity="1" fill-rule="nonzero"/><g clip-path="url(#3625426e48)"><path fill="#1d1d1b" d="M 376.945312 414.4375 C 375.261719 396.734375 367.257812 380.996094 356.023438 372.707031 C 354.058594 365.542969 350.6875 359.21875 346.332031 353.738281 C 345.632812 345.449219 342.121094 329.148438 325.691406 314.675781 C 327.519531 312.992188 329.203125 311.164062 330.464844 308.917969 C 344.226562 302.734375 353.777344 289.949219 354.898438 280.394531 C 362.199219 273.085938 366.414062 264.375 366.695312 255.804688 C 366.835938 251.730469 366.132812 247.933594 364.589844 244.703125 C 370.625 238.101562 372.59375 230.511719 370.0625 222.925781 C 365.992188 211.121094 351.667969 203.394531 332.433594 202.550781 C 327.238281 197.773438 320.074219 195.386719 311.511719 195.386719 C 307.859375 195.386719 303.925781 195.808594 300.136719 196.789062 C 297.046875 195.246094 293.253906 194.542969 289.042969 194.542969 C 281.882812 194.542969 273.878906 196.789062 267.839844 200.304688 C 266.855469 200.164062 266.015625 200.164062 265.171875 200.164062 C 255.625 200.164062 246.074219 206.765625 241.160156 210.699219 C 236.386719 214.636719 232.03125 219.132812 228.523438 223.769531 C 225.011719 219.132812 220.660156 214.496094 215.886719 210.699219 C 211.25 206.765625 201.5625 200.164062 192.015625 200.164062 C 191.171875 200.164062 190.328125 200.164062 189.488281 200.304688 C 183.449219 196.789062 175.445312 194.542969 168.285156 194.542969 C 164.070312 194.542969 160.28125 195.386719 157.191406 196.789062 C 153.398438 195.808594 149.609375 195.386719 145.816406 195.386719 C 137.25 195.386719 129.949219 197.914062 124.894531 202.550781 C 105.515625 203.394531 91.195312 211.121094 87.121094 222.925781 C 84.59375 230.371094 86.558594 238.101562 92.597656 244.703125 C 91.054688 247.933594 90.351562 251.730469 90.492188 255.804688 C 90.773438 264.375 94.984375 273.085938 102.285156 280.394531 C 103.410156 289.949219 113.097656 302.875 126.71875 308.917969 C 127.984375 311.164062 129.667969 313.132812 131.492188 314.675781 C 115.066406 329.007812 111.554688 345.308594 110.851562 353.738281 C 106.359375 359.21875 103.128906 365.542969 101.164062 372.707031 C 89.929688 380.996094 81.925781 396.734375 80.242188 414.4375 C 78.554688 432.003906 83.46875 448.441406 93.300781 458.839844 C 94.703125 466.707031 99.199219 477.105469 103.972656 483.429688 C 104.953125 496.777344 110.570312 509.984375 120.121094 520.664062 C 129.667969 531.484375 142.164062 538.929688 155.644531 541.738281 C 163.789062 549.328125 172.355469 554.667969 184.011719 559.304688 C 189.066406 564.503906 203.949219 576.726562 228.664062 576.726562 C 253.375 576.726562 268.261719 564.363281 273.316406 559.304688 C 284.972656 554.667969 293.535156 549.328125 301.679688 541.738281 C 315.160156 538.929688 327.65625 531.484375 337.207031 520.664062 C 346.613281 509.984375 352.371094 496.777344 353.355469 483.429688 C 358.128906 477.105469 362.621094 466.847656 364.027344 458.839844 C 373.855469 448.441406 378.628906 432.003906 376.945312 414.4375 Z M 376.945312 414.4375 " fill-opacity="1" fill-rule="nonzero"/></g><path fill="#47ac4d" d="M 264.609375 220.253906 C 265.59375 219.972656 266.574219 220.816406 266.574219 221.800781 C 266.15625 226.296875 268.824219 225.734375 269.523438 225.03125 C 276.6875 216.179688 284.269531 214.074219 291.007812 214.636719 C 292.132812 214.777344 292.835938 216.179688 291.992188 217.023438 C 289.324219 220.957031 292.132812 221.800781 293.253906 221.097656 C 304.207031 214.214844 314.738281 214.214844 318.8125 217.023438 C 319.652344 217.585938 319.652344 218.710938 318.953125 219.414062 C 314.878906 222.925781 317.125 224.609375 318.53125 224.050781 C 329.765625 220.113281 345.210938 223.628906 350.546875 228.125 C 351.25 228.6875 351.25 229.808594 350.546875 230.371094 C 343.804688 236.414062 340.4375 241.191406 338.890625 250.746094 C 338.609375 253.414062 342.964844 252.851562 344.929688 252.433594 C 345.914062 252.152344 346.753906 252.851562 346.753906 253.835938 C 346.894531 260.300781 340.855469 267.324219 331.730469 273.367188 C 330.464844 274.210938 330.746094 276.179688 333.414062 276.179688 C 334.679688 276.320312 335.242188 277.441406 334.679688 278.425781 C 331.449219 284.46875 327.097656 290.089844 312.070312 293.882812 C 310.667969 294.304688 310.527344 296.128906 311.789062 296.832031 C 313.054688 297.394531 313.195312 298.660156 312.210938 299.363281 C 297.328125 312.148438 259.554688 307.089844 254.78125 285.59375 C 254.640625 285.171875 254.78125 284.75 255.0625 284.328125 C 264.046875 272.382812 284.832031 248.917969 317.6875 236.695312 C 318.953125 236.132812 318.53125 234.164062 317.125 234.445312 C 285.25 239.222656 262.785156 256.929688 249.164062 275.476562 C 248.742188 276.039062 247.902344 276.320312 247.199219 275.898438 C 223.328125 263.671875 243.125 226.71875 264.609375 220.253906 Z M 264.609375 220.253906 " fill-opacity="1" fill-rule="nonzero"/><path fill="#47ac4d" d="M 122.367188 278.707031 C 121.804688 277.722656 122.367188 276.597656 123.628906 276.457031 C 126.4375 276.320312 126.578125 274.492188 125.316406 273.648438 C 116.328125 267.605469 110.148438 260.582031 110.289062 254.117188 C 110.289062 253.132812 111.273438 252.433594 112.117188 252.710938 C 113.941406 253.132812 118.433594 253.695312 118.152344 251.027344 C 116.609375 241.472656 113.238281 236.695312 106.5 230.652344 C 105.796875 230.089844 105.796875 228.96875 106.5 228.40625 C 111.835938 223.910156 127.28125 220.394531 138.515625 224.328125 C 139.917969 224.890625 142.164062 223.066406 138.09375 219.691406 C 137.390625 218.992188 137.390625 217.867188 138.234375 217.304688 C 142.445312 214.214844 152.976562 214.214844 163.929688 221.097656 C 165.054688 221.800781 167.863281 221.097656 165.195312 217.023438 C 164.492188 216.039062 165.054688 214.636719 166.175781 214.636719 C 172.917969 214.074219 180.5 216.039062 187.660156 225.03125 C 188.363281 225.875 191.03125 226.4375 190.609375 221.800781 C 190.46875 220.675781 191.453125 219.832031 192.574219 220.253906 C 214.058594 226.859375 233.859375 263.671875 209.707031 276.179688 C 209.003906 276.457031 208.160156 276.320312 207.742188 275.757812 C 194.121094 257.210938 171.652344 239.503906 139.777344 234.726562 C 138.375 234.585938 137.8125 236.554688 139.214844 236.976562 C 172.074219 249.339844 192.855469 272.664062 201.84375 284.609375 C 202.125 285.03125 202.265625 285.453125 202.125 285.871094 C 197.351562 307.371094 159.578125 312.429688 144.691406 299.644531 C 143.851562 298.941406 143.851562 297.675781 145.113281 297.113281 C 146.378906 296.550781 146.378906 294.585938 144.832031 294.164062 C 129.949219 290.371094 125.597656 284.609375 122.367188 278.707031 Z M 122.367188 278.707031 " fill-opacity="1" fill-rule="nonzero"/><path fill="#cc2455" d="M 324.007812 344.605469 C 330.1875 361.1875 325.410156 369.054688 310.667969 360.625 C 299.011719 354.300781 288.058594 345.027344 279.777344 334.628906 C 268.683594 321.421875 275.84375 315.519531 293.394531 318.753906 C 306.316406 321.984375 318.671875 332.242188 324.007812 344.605469 Z M 324.007812 344.605469 " fill-opacity="1" fill-rule="nonzero"/><path fill="#cc2455" d="M 258.011719 325.917969 C 279.074219 343.480469 254.921875 355.847656 228.664062 355.847656 C 202.40625 355.847656 178.253906 343.480469 199.316406 325.917969 C 211.953125 316.082031 224.03125 315.660156 228.664062 315.660156 C 233.296875 315.660156 245.371094 316.082031 258.011719 325.917969 Z M 258.011719 325.917969 " fill-opacity="1" fill-rule="nonzero"/><path fill="#cc2455" d="M 133.320312 344.605469 C 138.65625 332.382812 151.011719 321.984375 164.070312 318.894531 C 181.484375 315.660156 188.785156 321.5625 177.691406 334.769531 C 169.40625 345.167969 158.453125 354.300781 146.800781 360.765625 C 131.914062 369.054688 127.140625 361.046875 133.320312 344.605469 Z M 133.320312 344.605469 " fill-opacity="1" fill-rule="nonzero"/><path fill="#cc2455" d="M 102.847656 436.359375 C 97.933594 423.570312 99.199219 408.117188 106.359375 396.171875 C 114.082031 382.964844 121.945312 383.527344 125.035156 394.628906 C 129.105469 409.378906 127.5625 427.085938 120.960938 440.996094 C 115.207031 452.515625 108.042969 448.722656 102.847656 436.359375 Z M 102.847656 436.359375 " fill-opacity="1" fill-rule="nonzero"/><path fill="#cc2455" d="M 158.875 522.070312 C 140.199219 518.132812 124.332031 499.304688 123.628906 480.195312 C 126.578125 412.332031 224.449219 533.730469 158.875 522.070312 Z M 158.875 522.070312 " fill-opacity="1" fill-rule="nonzero"/><path fill="#cc2455" d="M 160.839844 437.480469 C 144.414062 427.925781 140.058594 404.742188 151.152344 385.632812 C 162.246094 366.523438 184.429688 358.65625 200.859375 368.070312 C 217.289062 377.625 221.640625 400.808594 210.550781 419.917969 C 199.457031 439.027344 177.269531 446.894531 160.839844 437.480469 Z M 160.839844 437.480469 " fill-opacity="1" fill-rule="nonzero"/><path fill="#cc2455" d="M 256.042969 548.0625 C 248.320312 553.683594 238.914062 556.914062 228.664062 556.914062 C 218.414062 556.914062 209.003906 553.683594 201.28125 548.0625 C 184.992188 536.820312 201.421875 523.894531 228.664062 523.894531 C 255.90625 523.894531 272.332031 536.820312 256.042969 548.0625 Z M 256.042969 548.0625 " fill-opacity="1" fill-rule="nonzero"/><path fill="#cc2455" d="M 266.714844 474.15625 C 266.714844 475.226562 266.65625 476.296875 266.535156 477.363281 C 266.410156 478.429688 266.226562 479.492188 265.984375 480.542969 C 265.742188 481.59375 265.441406 482.632812 265.078125 483.660156 C 264.714844 484.683594 264.296875 485.691406 263.820312 486.683594 C 263.34375 487.675781 262.8125 488.640625 262.222656 489.589844 C 261.636719 490.535156 260.996094 491.453125 260.304688 492.34375 C 259.609375 493.234375 258.871094 494.09375 258.078125 494.925781 C 257.289062 495.753906 256.453125 496.546875 255.570312 497.304688 C 254.691406 498.0625 253.765625 498.78125 252.804688 499.460938 C 251.839844 500.144531 250.839844 500.78125 249.804688 501.375 C 248.769531 501.972656 247.699219 502.523438 246.601562 503.027344 C 245.503906 503.535156 244.378906 503.992188 243.226562 504.402344 C 242.074219 504.8125 240.902344 505.171875 239.710938 505.484375 C 238.515625 505.796875 237.308594 506.054688 236.085938 506.265625 C 234.863281 506.472656 233.632812 506.632812 232.394531 506.734375 C 231.152344 506.839844 229.910156 506.894531 228.664062 506.894531 C 227.417969 506.894531 226.171875 506.839844 224.933594 506.734375 C 223.691406 506.632812 222.460938 506.472656 221.238281 506.265625 C 220.015625 506.054688 218.808594 505.796875 217.617188 505.484375 C 216.425781 505.171875 215.253906 504.8125 214.101562 504.402344 C 212.949219 503.992188 211.824219 503.535156 210.726562 503.027344 C 209.625 502.523438 208.558594 501.972656 207.523438 501.375 C 206.484375 500.78125 205.484375 500.144531 204.523438 499.460938 C 203.558594 498.78125 202.636719 498.0625 201.753906 497.304688 C 200.875 496.546875 200.039062 495.753906 199.246094 494.925781 C 198.457031 494.09375 197.714844 493.234375 197.023438 492.34375 C 196.332031 491.453125 195.691406 490.535156 195.101562 489.589844 C 194.515625 488.640625 193.984375 487.675781 193.507812 486.683594 C 193.03125 485.691406 192.609375 484.683594 192.25 483.660156 C 191.886719 482.632812 191.585938 481.59375 191.339844 480.542969 C 191.097656 479.492188 190.914062 478.429688 190.792969 477.363281 C 190.671875 476.296875 190.609375 475.226562 190.609375 474.15625 C 190.609375 473.082031 190.671875 472.011719 190.792969 470.945312 C 190.914062 469.878906 191.097656 468.820312 191.339844 467.769531 C 191.585938 466.714844 191.886719 465.675781 192.25 464.652344 C 192.609375 463.625 193.03125 462.617188 193.507812 461.625 C 193.984375 460.636719 194.515625 459.667969 195.101562 458.722656 C 195.691406 457.777344 196.332031 456.859375 197.023438 455.964844 C 197.714844 455.074219 198.457031 454.214844 199.246094 453.386719 C 200.039062 452.558594 200.875 451.761719 201.753906 451.003906 C 202.636719 450.246094 203.558594 449.527344 204.523438 448.847656 C 205.484375 448.167969 206.484375 447.53125 207.523438 446.933594 C 208.558594 446.339844 209.625 445.789062 210.726562 445.28125 C 211.824219 444.777344 212.949219 444.320312 214.101562 443.910156 C 215.253906 443.5 216.425781 443.136719 217.617188 442.828125 C 218.808594 442.515625 220.015625 442.253906 221.238281 442.046875 C 222.460938 441.835938 223.691406 441.679688 224.933594 441.574219 C 226.171875 441.46875 227.417969 441.417969 228.664062 441.417969 C 229.910156 441.417969 231.152344 441.46875 232.394531 441.574219 C 233.632812 441.679688 234.863281 441.835938 236.085938 442.046875 C 237.308594 442.253906 238.515625 442.515625 239.710938 442.828125 C 240.902344 443.136719 242.074219 443.5 243.226562 443.910156 C 244.378906 444.320312 245.503906 444.777344 246.601562 445.28125 C 247.699219 445.789062 248.769531 446.339844 249.804688 446.933594 C 250.839844 447.53125 251.839844 448.167969 252.804688 448.847656 C 253.765625 449.527344 254.691406 450.246094 255.570312 451.003906 C 256.453125 451.761719 257.289062 452.558594 258.078125 453.386719 C 258.871094 454.214844 259.609375 455.074219 260.304688 455.964844 C 260.996094 456.859375 261.636719 457.777344 262.222656 458.722656 C 262.8125 459.667969 263.34375 460.636719 263.820312 461.625 C 264.296875 462.617188 264.714844 463.625 265.078125 464.652344 C 265.441406 465.675781 265.742188 466.714844 265.984375 467.769531 C 266.226562 468.820312 266.410156 469.878906 266.535156 470.945312 C 266.65625 472.011719 266.714844 473.082031 266.714844 474.15625 Z M 266.714844 474.15625 " fill-opacity="1" fill-rule="nonzero"/><path fill="#cc2455" d="M 246.636719 419.917969 C 235.542969 400.808594 239.898438 377.484375 256.324219 368.070312 C 272.753906 358.515625 295.082031 366.382812 306.035156 385.632812 C 317.125 404.742188 312.773438 428.066406 296.34375 437.480469 C 279.914062 446.894531 257.589844 439.027344 246.636719 419.917969 Z M 246.636719 419.917969 " fill-opacity="1" fill-rule="nonzero"/><path fill="#cc2455" d="M 298.3125 522.070312 C 232.734375 533.589844 330.605469 412.191406 333.554688 480.195312 C 332.855469 499.304688 316.984375 518.132812 298.3125 522.070312 Z M 298.3125 522.070312 " fill-opacity="1" fill-rule="nonzero"/><path fill="#cc2455" d="M 354.476562 436.359375 C 349.28125 448.722656 342.121094 452.515625 336.363281 441.136719 C 329.90625 427.226562 328.359375 409.519531 332.292969 394.765625 C 335.382812 383.527344 343.246094 382.964844 350.96875 396.3125 C 358.128906 408.117188 359.253906 423.570312 354.476562 436.359375 Z M 354.476562 436.359375 " fill-opacity="1" fill-rule="nonzero"/><path fill="#1d1d1b" d="M 509.78125 480.335938 L 461.757812 480.335938 L 461.757812 530.921875 L 446.734375 530.921875 L 446.734375 416.40625 L 517.644531 416.40625 L 517.644531 428.769531 L 461.757812 428.769531 L 461.757812 467.972656 L 509.78125 467.972656 Z M 509.78125 480.335938 " fill-opacity="1" fill-rule="nonzero"/><path fill="#1d1d1b" d="M 525.226562 487.644531 C 525.226562 479.355469 526.910156 471.765625 530.140625 465.164062 C 533.371094 458.558594 538.003906 453.359375 543.761719 449.707031 C 549.660156 446.054688 556.257812 444.226562 563.703125 444.226562 C 575.214844 444.226562 584.625 448.300781 591.785156 456.308594 C 598.945312 464.320312 602.457031 475 602.457031 488.347656 L 602.457031 489.332031 C 602.457031 497.621094 600.914062 505.066406 597.683594 511.671875 C 594.453125 518.273438 589.960938 523.332031 584.0625 526.988281 C 578.164062 530.640625 571.425781 532.464844 563.703125 532.464844 C 552.1875 532.464844 542.777344 528.390625 535.617188 520.382812 C 528.457031 512.375 524.945312 501.695312 524.945312 488.488281 L 524.945312 487.644531 Z M 539.96875 489.332031 C 539.96875 498.746094 542.21875 506.332031 546.570312 512.09375 C 550.921875 517.851562 556.820312 520.664062 564.121094 520.664062 C 571.566406 520.664062 577.320312 517.714844 581.675781 511.953125 C 586.027344 506.191406 588.132812 498.042969 588.132812 487.644531 C 588.132812 478.371094 585.886719 470.78125 581.535156 464.882812 C 577.042969 459.121094 571.285156 456.171875 563.839844 456.171875 C 556.679688 456.171875 550.921875 458.980469 546.429688 464.742188 C 542.078125 470.5 539.96875 478.792969 539.96875 489.332031 Z M 539.96875 489.332031 " fill-opacity="1" fill-rule="nonzero"/><path fill="#1d1d1b" d="M 671.261719 522.628906 C 665.644531 529.234375 657.359375 532.605469 646.265625 532.605469 C 637.140625 532.605469 630.257812 529.9375 625.484375 524.738281 C 620.710938 519.539062 618.324219 511.671875 618.324219 501.273438 L 618.324219 445.914062 L 632.925781 445.914062 L 632.925781 500.851562 C 632.925781 513.777344 638.121094 520.242188 648.65625 520.242188 C 659.746094 520.242188 667.191406 516.167969 670.839844 507.878906 L 670.839844 445.914062 L 685.445312 445.914062 L 685.445312 531.0625 L 671.542969 531.0625 Z M 671.261719 522.628906 " fill-opacity="1" fill-rule="nonzero"/><path fill="#1d1d1b" d="M 718.863281 445.914062 L 719.285156 456.589844 C 725.742188 448.441406 734.308594 444.367188 744.699219 444.367188 C 762.675781 444.367188 771.800781 454.484375 771.941406 474.859375 L 771.941406 531.0625 L 757.339844 531.0625 L 757.339844 474.71875 C 757.339844 468.535156 755.933594 464.039062 753.125 461.085938 C 750.316406 458.136719 746.105469 456.730469 740.207031 456.730469 C 735.433594 456.730469 731.359375 457.996094 727.851562 460.527344 C 724.339844 463.054688 721.53125 466.285156 719.566406 470.5 L 719.566406 531.203125 L 704.960938 531.203125 L 704.960938 446.054688 L 718.863281 446.054688 Z M 718.863281 445.914062 " fill-opacity="1" fill-rule="nonzero"/><path fill="#1d1d1b" d="M 787.808594 487.785156 C 787.808594 474.71875 790.898438 464.179688 797.078125 456.308594 C 803.253906 448.300781 811.398438 444.367188 821.367188 444.367188 C 831.339844 444.367188 839.203125 447.738281 845.101562 454.625 L 845.101562 410.222656 L 859.703125 410.222656 L 859.703125 531.0625 L 846.363281 531.0625 L 845.660156 521.929688 C 839.902344 529.09375 831.761719 532.605469 821.367188 532.605469 C 811.539062 532.605469 803.535156 528.53125 797.21875 520.523438 C 791.039062 512.515625 787.949219 501.976562 787.949219 488.910156 L 787.949219 487.785156 Z M 802.273438 489.332031 C 802.273438 499.023438 804.238281 506.472656 808.308594 511.953125 C 812.242188 517.433594 817.859375 520.101562 824.878906 520.101562 C 834.148438 520.101562 840.886719 516.027344 845.101562 507.738281 L 845.101562 468.675781 C 840.746094 460.667969 834.007812 456.589844 825.019531 456.589844 C 817.859375 456.589844 812.382812 459.402344 808.308594 464.882812 C 804.378906 470.363281 802.273438 478.511719 802.273438 489.332031 Z M 802.273438 489.332031 " fill-opacity="1" fill-rule="nonzero"/><path fill="#1d1d1b" d="M 932.582031 530.921875 C 931.738281 529.234375 931.035156 526.285156 930.472656 521.929688 C 923.734375 528.953125 915.589844 532.464844 906.320312 532.464844 C 897.898438 532.464844 891.015625 530.078125 885.679688 525.300781 C 880.34375 520.523438 877.675781 514.480469 877.675781 507.316406 C 877.675781 498.464844 881.046875 491.578125 887.785156 486.660156 C 894.527344 481.742188 903.933594 479.355469 916.152344 479.355469 L 930.332031 479.355469 L 930.332031 472.75 C 930.332031 467.691406 928.789062 463.617188 925.839844 460.527344 C 922.75 457.574219 918.257812 456.03125 912.359375 456.03125 C 907.164062 456.03125 902.8125 457.292969 899.300781 459.964844 C 895.789062 462.632812 893.964844 465.722656 893.964844 469.519531 L 879.363281 469.519531 C 879.363281 465.304688 880.90625 461.226562 883.855469 457.152344 C 886.804688 453.078125 891.015625 450.128906 896.070312 447.738281 C 901.265625 445.492188 906.882812 444.226562 913.0625 444.226562 C 922.890625 444.226562 930.472656 446.617188 936.089844 451.53125 C 941.707031 456.449219 944.515625 463.195312 944.796875 471.765625 L 944.796875 510.96875 C 944.796875 518.835938 945.78125 525.019531 947.746094 529.65625 L 947.746094 530.921875 Z M 908.429688 519.960938 C 912.921875 519.960938 917.273438 518.835938 921.347656 516.449219 C 925.417969 514.058594 928.367188 510.96875 930.191406 507.175781 L 930.191406 489.75 L 918.820312 489.75 C 900.984375 489.75 892.140625 494.949219 892.140625 505.347656 C 892.140625 509.84375 893.683594 513.496094 896.632812 516.027344 C 899.582031 518.554688 903.652344 519.960938 908.429688 519.960938 Z M 908.429688 519.960938 " fill-opacity="1" fill-rule="nonzero"/><path fill="#1d1d1b" d="M 985.796875 425.117188 L 985.796875 445.914062 L 1001.667969 445.914062 L 1001.667969 457.152344 L 985.796875 457.152344 L 985.796875 509.984375 C 985.796875 513.355469 986.5 515.886719 987.90625 517.714844 C 989.308594 519.398438 991.695312 520.242188 995.066406 520.242188 C 996.75 520.242188 999 519.960938 1001.945312 519.257812 L 1001.945312 530.921875 C 998.15625 531.90625 994.363281 532.464844 990.714844 532.464844 C 984.253906 532.464844 979.339844 530.5 975.96875 526.566406 C 972.597656 522.628906 971.054688 517.011719 971.054688 509.84375 L 971.054688 457.011719 L 955.609375 457.011719 L 955.609375 445.773438 L 971.054688 445.773438 L 971.054688 425.117188 Z M 985.796875 425.117188 " fill-opacity="1" fill-rule="nonzero"/><path fill="#1d1d1b" d="M 1017.113281 423.289062 C 1017.113281 420.902344 1017.8125 418.933594 1019.21875 417.25 C 1020.621094 415.5625 1022.730469 414.859375 1025.675781 414.859375 C 1028.484375 414.859375 1030.59375 415.703125 1032.136719 417.25 C 1033.542969 418.933594 1034.382812 420.902344 1034.382812 423.289062 C 1034.382812 425.679688 1033.679688 427.648438 1032.136719 429.191406 C 1030.734375 430.738281 1028.484375 431.582031 1025.675781 431.582031 C 1022.871094 431.582031 1020.761719 430.738281 1019.21875 429.191406 C 1017.8125 427.648438 1017.113281 425.679688 1017.113281 423.289062 Z M 1032.839844 530.921875 L 1018.234375 530.921875 L 1018.234375 445.773438 L 1032.839844 445.773438 Z M 1032.839844 530.921875 " fill-opacity="1" fill-rule="nonzero"/><path fill="#1d1d1b" d="M 1050.53125 487.644531 C 1050.53125 479.355469 1052.214844 471.765625 1055.445312 465.164062 C 1058.675781 458.558594 1063.308594 453.359375 1069.066406 449.707031 C 1074.964844 446.054688 1081.5625 444.226562 1089.007812 444.226562 C 1100.519531 444.226562 1109.929688 448.300781 1117.089844 456.308594 C 1124.25 464.320312 1127.761719 475 1127.761719 488.347656 L 1127.761719 489.332031 C 1127.761719 497.621094 1126.21875 505.066406 1122.988281 511.671875 C 1119.757812 518.273438 1115.265625 523.332031 1109.367188 526.988281 C 1103.46875 530.640625 1096.730469 532.464844 1089.007812 532.464844 C 1077.492188 532.464844 1068.082031 528.390625 1060.921875 520.382812 C 1053.761719 512.375 1050.25 501.695312 1050.25 488.488281 L 1050.25 487.644531 Z M 1065.277344 489.332031 C 1065.277344 498.746094 1067.523438 506.332031 1071.875 512.09375 C 1076.226562 517.851562 1082.125 520.664062 1089.425781 520.664062 C 1096.871094 520.664062 1102.625 517.714844 1106.980469 511.953125 C 1111.332031 506.191406 1113.4375 498.042969 1113.4375 487.644531 C 1113.4375 478.371094 1111.191406 470.78125 1106.839844 464.882812 C 1102.488281 458.980469 1096.589844 456.171875 1089.148438 456.171875 C 1081.984375 456.171875 1076.226562 458.980469 1071.734375 464.742188 C 1067.382812 470.5 1065.277344 478.792969 1065.277344 489.332031 Z M 1065.277344 489.332031 " fill-opacity="1" fill-rule="nonzero"/><path fill="#1d1d1b" d="M 1157.390625 445.914062 L 1157.8125 456.589844 C 1164.269531 448.441406 1172.835938 444.367188 1183.226562 444.367188 C 1201.199219 444.367188 1210.328125 454.484375 1210.46875 474.859375 L 1210.46875 531.0625 L 1195.863281 531.0625 L 1195.863281 474.71875 C 1195.863281 468.535156 1194.460938 464.039062 1191.652344 461.085938 C 1188.84375 458.136719 1184.632812 456.730469 1178.734375 456.730469 C 1173.960938 456.730469 1169.886719 457.996094 1166.375 460.527344 C 1162.867188 463.054688 1160.058594 466.285156 1158.09375 470.5 L 1158.09375 531.203125 L 1143.488281 531.203125 L 1143.488281 446.054688 L 1157.390625 446.054688 Z M 1157.390625 445.914062 " fill-opacity="1" fill-rule="nonzero"/></svg>