<svg xmlns="http://www.w3.org/2000/svg" xmlns:xlink="http://www.w3.org/1999/xlink" width="1890" zoomAndPan="magnify" viewBox="0 0 1416.96 715.92" height="945" preserveAspectRatio="xMidYMid meet" version="1.0"><defs><clipPath id="9a6947a9ff"><path d="M 0.0585938 0 L 1416.859375 0 L 1416.859375 708.671875 L 0.0585938 708.671875 Z M 0.0585938 0 " clip-rule="nonzero"/></clipPath><clipPath id="bcb752a51a"><path d="M 108 258.519531 L 229 258.519531 L 229 382 L 108 382 Z M 108 258.519531 " clip-rule="nonzero"/></clipPath><clipPath id="d9bb770533"><path d="M 413 302 L 490 302 L 490 416.753906 L 413 416.753906 Z M 413 302 " clip-rule="nonzero"/></clipPath></defs><g clip-path="url(#9a6947a9ff)"><path fill="#ffffff" d="M 0.0585938 0 L 1417.402344 0 L 1417.402344 708.671875 L 0.0585938 708.671875 Z M 0.0585938 0 " fill-opacity="1" fill-rule="nonzero"/><path fill="#ffffff" d="M 0.0585938 0 L 1417.402344 0 L 1417.402344 708.671875 L 0.0585938 708.671875 Z M 0.0585938 0 " fill-opacity="1" fill-rule="nonzero"/></g><path fill="#5f6368" d="M 649.238281 378.910156 L 649.238281 270.320312 L 682.492188 270.320312 C 699.050781 270.320312 712.445312 275.332031 722.472656 285.355469 C 732.570312 295.375 737.582031 308.429688 737.582031 324.648438 C 737.582031 340.933594 732.570312 354.050781 722.472656 364.007812 C 712.378906 373.964844 699.050781 378.972656 682.492188 378.972656 L 649.238281 378.972656 Z M 663.226562 283.640625 L 663.226562 365.523438 L 682.492188 365.523438 C 695.160156 365.523438 705.121094 361.898438 712.378906 354.710938 C 719.636719 347.460938 723.332031 337.4375 723.332031 324.582031 C 723.332031 311.859375 719.703125 301.835938 712.378906 294.582031 C 705.121094 287.332031 695.160156 283.640625 682.492188 283.640625 Z M 663.226562 283.640625 " fill-opacity="1" fill-rule="nonzero"/><path fill="#5f6368" d="M 784.886719 381.28125 C 773.9375 381.28125 764.964844 377.523438 757.902344 370.074219 C 750.84375 362.625 747.28125 353.128906 747.28125 341.722656 C 747.28125 330.382812 750.710938 320.957031 757.574219 313.441406 C 764.433594 305.921875 773.277344 302.164062 783.964844 302.164062 C 794.984375 302.164062 803.757812 305.726562 810.289062 312.847656 C 816.820312 319.96875 820.054688 329.988281 820.054688 342.777344 L 819.921875 344.296875 L 761.53125 344.296875 C 761.730469 351.546875 764.171875 357.414062 768.789062 361.898438 C 773.472656 366.316406 779.015625 368.558594 785.480469 368.558594 C 794.390625 368.558594 801.382812 364.140625 806.398438 355.238281 L 818.867188 361.304688 C 815.5 367.570312 810.882812 372.445312 805.011719 376.007812 C 799.074219 379.5 792.410156 381.28125 784.886719 381.28125 Z M 762.589844 332.757812 L 805.210938 332.757812 C 804.8125 327.613281 802.703125 323.328125 798.875 319.96875 C 795.050781 316.605469 789.96875 314.890625 783.636719 314.890625 C 778.355469 314.890625 773.871094 316.539062 770.042969 319.769531 C 766.28125 323 763.777344 327.351562 762.589844 332.757812 Z M 762.589844 332.757812 " fill-opacity="1" fill-rule="nonzero"/><path fill="#5f6368" d="M 865.84375 381.28125 C 854.890625 381.28125 845.917969 377.523438 838.859375 370.074219 C 831.796875 362.625 828.234375 353.128906 828.234375 341.722656 C 828.234375 330.382812 831.667969 320.957031 838.527344 313.441406 C 845.390625 305.921875 854.230469 302.164062 864.917969 302.164062 C 875.9375 302.164062 884.710938 305.726562 891.242188 312.847656 C 897.773438 319.96875 901.007812 329.988281 901.007812 342.777344 L 900.875 344.296875 L 842.421875 344.296875 C 842.617188 351.546875 845.058594 357.414062 849.679688 361.898438 C 854.363281 366.316406 859.902344 368.558594 866.371094 368.558594 C 875.277344 368.558594 882.269531 364.140625 887.285156 355.238281 L 899.753906 361.304688 C 896.390625 367.570312 891.769531 372.445312 885.898438 376.007812 C 880.027344 379.5 873.296875 381.28125 865.84375 381.28125 Z M 843.542969 332.757812 L 886.164062 332.757812 C 885.765625 327.613281 883.65625 323.328125 879.894531 319.96875 C 876.070312 316.605469 870.988281 314.890625 864.65625 314.890625 C 859.375 314.890625 854.890625 316.539062 851.0625 319.769531 C 847.238281 323 844.730469 327.351562 843.542969 332.757812 Z M 843.542969 332.757812 " fill-opacity="1" fill-rule="nonzero"/><path fill="#5f6368" d="M 952.007812 381.28125 C 946.53125 381.28125 941.582031 380.09375 937.097656 377.789062 C 932.609375 375.480469 929.113281 372.382812 926.671875 368.558594 L 926.078125 368.558594 L 926.671875 378.84375 L 926.671875 411.609375 L 912.6875 411.609375 L 912.6875 304.605469 L 926.011719 304.605469 L 926.011719 314.890625 L 926.605469 314.890625 C 929.046875 311.066406 932.480469 307.96875 937.03125 305.660156 C 941.519531 303.351562 946.53125 302.164062 951.941406 302.164062 C 961.773438 302.164062 970.085938 305.988281 976.816406 313.703125 C 983.808594 321.484375 987.304688 330.84375 987.304688 341.722656 C 987.304688 352.734375 983.808594 362.097656 976.816406 369.742188 C 970.085938 377.457031 961.773438 381.28125 952.007812 381.28125 Z M 949.699219 368.558594 C 956.363281 368.558594 961.96875 366.050781 966.523438 360.976562 C 971.074219 356.03125 973.382812 349.570312 973.382812 341.722656 C 973.382812 333.945312 971.140625 327.546875 966.523438 322.472656 C 961.96875 317.394531 956.363281 314.890625 949.699219 314.890625 C 942.902344 314.890625 937.230469 317.394531 932.675781 322.472656 C 928.257812 327.546875 926.011719 333.945312 926.011719 341.722656 C 926.011719 349.636719 928.257812 356.097656 932.675781 361.105469 C 937.296875 366.117188 942.902344 368.558594 949.699219 368.558594 Z M 949.699219 368.558594 " fill-opacity="1" fill-rule="nonzero"/><path fill="#5f6368" d="M 1016.335938 378.910156 L 1002.347656 378.910156 L 1002.347656 270.320312 L 1016.335938 270.320312 L 1054.140625 336.449219 L 1054.734375 336.449219 L 1092.539062 270.320312 L 1106.527344 270.320312 L 1106.527344 378.910156 L 1092.539062 378.910156 L 1092.539062 314.429688 L 1093.132812 296.230469 L 1092.539062 296.230469 L 1058.5625 355.832031 L 1050.378906 355.832031 L 1016.402344 296.230469 L 1015.808594 296.230469 L 1016.402344 314.429688 L 1016.402344 378.910156 Z M 1016.335938 378.910156 " fill-opacity="1" fill-rule="nonzero"/><path fill="#5f6368" d="M 1143.210938 278.957031 C 1143.210938 281.660156 1142.21875 284.035156 1140.304688 285.945312 C 1138.394531 287.859375 1136.082031 288.847656 1133.3125 288.847656 C 1130.542969 288.847656 1128.234375 287.859375 1126.320312 285.945312 C 1124.40625 284.035156 1123.417969 281.726562 1123.417969 278.957031 C 1123.417969 276.1875 1124.40625 273.882812 1126.320312 271.96875 C 1128.234375 270.058594 1130.542969 269.070312 1133.3125 269.070312 C 1136.082031 269.070312 1138.394531 270.058594 1140.304688 271.96875 C 1142.21875 273.882812 1143.210938 276.1875 1143.210938 278.957031 Z M 1140.371094 304.605469 L 1140.371094 378.910156 L 1126.386719 378.910156 L 1126.386719 304.605469 Z M 1140.371094 304.605469 " fill-opacity="1" fill-rule="nonzero"/><path fill="#5f6368" d="M 1156.933594 304.605469 L 1170.261719 304.605469 L 1170.261719 314.890625 L 1170.855469 314.890625 C 1172.964844 311.265625 1176.265625 308.230469 1180.617188 305.792969 C 1184.972656 303.351562 1189.589844 302.164062 1194.339844 302.164062 C 1203.445312 302.164062 1210.441406 304.738281 1215.386719 309.945312 C 1220.269531 315.152344 1222.777344 322.539062 1222.777344 332.164062 L 1222.777344 378.84375 L 1208.789062 378.84375 L 1208.789062 333.019531 C 1208.460938 320.890625 1202.390625 314.824219 1190.449219 314.824219 C 1184.90625 314.824219 1180.222656 317.066406 1176.460938 321.550781 C 1172.699219 326.03125 1170.855469 331.4375 1170.855469 337.703125 L 1170.855469 378.777344 L 1156.867188 378.777344 L 1156.867188 304.605469 Z M 1156.933594 304.605469 " fill-opacity="1" fill-rule="nonzero"/><path fill="#5f6368" d="M 1269.421875 381.28125 C 1259.726562 381.28125 1251.34375 377.457031 1244.417969 369.742188 C 1237.554688 361.964844 1234.125 352.601562 1234.125 341.722656 C 1234.125 330.84375 1237.554688 321.484375 1244.417969 313.703125 C 1251.410156 305.988281 1259.726562 302.164062 1269.421875 302.164062 C 1274.898438 302.164062 1279.847656 303.351562 1284.398438 305.660156 C 1288.886719 307.96875 1292.382812 311.066406 1294.824219 314.890625 L 1295.417969 314.890625 L 1294.824219 304.605469 L 1294.824219 270.320312 L 1308.8125 270.320312 L 1308.8125 378.910156 L 1295.484375 378.910156 L 1295.484375 368.625 L 1294.890625 368.625 C 1292.449219 372.445312 1289.019531 375.546875 1284.464844 377.851562 C 1279.914062 380.160156 1274.898438 381.28125 1269.421875 381.28125 Z M 1271.734375 368.558594 C 1278.59375 368.558594 1284.203125 366.050781 1288.558594 361.105469 C 1293.109375 356.164062 1295.417969 349.703125 1295.417969 341.722656 C 1295.417969 333.945312 1293.109375 327.546875 1288.558594 322.472656 C 1284.136719 317.394531 1278.460938 314.890625 1271.734375 314.890625 C 1265.070312 314.890625 1259.460938 317.394531 1254.910156 322.472656 C 1250.355469 327.546875 1248.046875 333.945312 1248.046875 341.722656 C 1248.046875 349.636719 1250.355469 356.03125 1254.910156 360.976562 C 1259.394531 366.050781 1265.003906 368.558594 1271.734375 368.558594 Z M 1271.734375 368.558594 " fill-opacity="1" fill-rule="nonzero"/><g clip-path="url(#bcb752a51a)"><path fill="#4285f4" d="M 170.839844 381.28125 C 136.796875 381.28125 108.226562 353.722656 108.226562 319.902344 C 108.226562 286.078125 136.796875 258.519531 170.839844 258.519531 C 189.644531 258.519531 203.039062 265.839844 213.132812 275.464844 L 201.257812 287.265625 C 194 280.539062 184.234375 275.265625 170.839844 275.265625 C 146.035156 275.265625 126.570312 295.175781 126.570312 319.902344 C 126.570312 344.625 145.96875 364.535156 170.839844 364.535156 C 186.9375 364.535156 196.109375 358.074219 201.980469 352.273438 C 206.796875 347.460938 209.964844 340.601562 211.152344 331.175781 L 170.839844 331.175781 L 170.839844 314.363281 L 227.582031 314.363281 C 228.175781 317.328125 228.503906 320.957031 228.503906 324.84375 C 228.503906 337.4375 225.007812 352.996094 213.921875 364.074219 C 203.039062 375.28125 189.183594 381.28125 170.839844 381.28125 Z M 170.839844 381.28125 " fill-opacity="1" fill-rule="nonzero"/></g><path fill="#ea4335" d="M 316.1875 341.722656 C 316.1875 364.46875 298.570312 381.214844 277.0625 381.214844 C 255.554688 381.214844 237.9375 364.46875 237.9375 341.722656 C 237.9375 318.847656 255.554688 302.230469 277.0625 302.230469 C 298.570312 302.230469 316.1875 318.847656 316.1875 341.722656 Z M 299.035156 341.722656 C 299.035156 327.484375 288.808594 317.792969 276.996094 317.792969 C 265.1875 317.792969 254.960938 327.546875 254.960938 341.722656 C 254.960938 355.765625 265.1875 365.65625 276.996094 365.65625 C 288.808594 365.65625 299.035156 355.832031 299.035156 341.722656 Z M 299.035156 341.722656 " fill-opacity="1" fill-rule="nonzero"/><path fill="#fbbc04" d="M 404.003906 341.722656 C 404.003906 364.46875 386.453125 381.214844 364.878906 381.214844 C 343.304688 381.214844 325.753906 364.46875 325.753906 341.722656 C 325.753906 318.847656 343.304688 302.230469 364.878906 302.230469 C 386.386719 302.230469 404.003906 318.847656 404.003906 341.722656 Z M 386.847656 341.722656 C 386.847656 327.484375 376.621094 317.792969 364.8125 317.792969 C 353.003906 317.792969 342.777344 327.546875 342.777344 341.722656 C 342.777344 355.765625 353.003906 365.65625 364.8125 365.65625 C 376.621094 365.722656 386.847656 355.832031 386.847656 341.722656 Z M 386.847656 341.722656 " fill-opacity="1" fill-rule="nonzero"/><g clip-path="url(#d9bb770533)"><path fill="#4285f4" d="M 489.574219 304.605469 L 489.574219 375.546875 C 489.574219 404.753906 472.289062 416.6875 451.835938 416.6875 C 432.570312 416.6875 420.960938 403.828125 416.605469 393.347656 L 431.78125 387.082031 C 434.484375 393.542969 441.082031 401.125 451.769531 401.125 C 464.835938 401.125 473.015625 393.015625 473.015625 377.917969 L 473.015625 372.25 L 472.421875 372.25 C 468.527344 377.0625 461.007812 381.214844 451.507812 381.214844 C 431.648438 381.214844 413.4375 364.007812 413.4375 341.855469 C 413.4375 319.570312 431.648438 302.164062 451.507812 302.164062 C 461.007812 302.164062 468.527344 306.386719 472.421875 311 L 473.015625 311 L 473.015625 304.605469 Z M 474.203125 341.921875 C 474.203125 328.011719 464.898438 317.792969 452.957031 317.792969 C 440.949219 317.792969 430.855469 327.945312 430.855469 341.921875 C 430.855469 355.699219 440.949219 365.722656 452.957031 365.722656 C 464.898438 365.722656 474.203125 355.699219 474.203125 341.921875 Z M 474.203125 341.921875 " fill-opacity="1" fill-rule="nonzero"/></g><path fill="#34a853" d="M 502.640625 262.738281 L 520.121094 262.738281 L 520.121094 378.910156 L 502.640625 378.910156 Z M 502.640625 262.738281 " fill-opacity="1" fill-rule="nonzero"/><path fill="#ea4335" d="M 588.738281 354.777344 L 602.265625 363.746094 C 597.910156 370.207031 587.351562 381.28125 569.144531 381.28125 C 546.578125 381.28125 530.285156 363.941406 530.285156 341.789062 C 530.285156 318.320312 546.710938 302.296875 567.230469 302.296875 C 587.816406 302.296875 597.910156 318.582031 601.207031 327.417969 L 603.054688 331.898438 L 549.945312 353.789062 C 554.035156 361.699219 560.300781 365.789062 569.210938 365.789062 C 578.050781 365.722656 584.253906 361.371094 588.738281 354.777344 Z M 547.105469 340.535156 L 582.601562 325.902344 C 580.625 320.957031 574.75 317.527344 567.824219 317.527344 C 558.984375 317.527344 546.644531 325.308594 547.105469 340.535156 Z M 547.105469 340.535156 " fill-opacity="1" fill-rule="nonzero"/></svg>